PathFileType	4	(x/y/z)	S06_M20_T18
DataRate	CameraRate	NumFrames	NumMarkers	Units	OrigDataRate	OrigDataStartFrame	OrigNumFrames
240	240	11	51	mm	240	1	481
Frame#	Time	Sternum			R.Acromium			L.Acromium			Top.Head			R.ASIS			L.ASIS			R.PSIS			L.PSIS			R.Great.Tro			L.Great.Tro			R.Iliac.Crest			L.Iliac.Crest			V.Sacral			R.Thigh.Upper.Post			R.Thigh.Lower.Ant			R.Thigh.Lower.Post			R.Thigh.Upper.Ant			R.Knee.Lat			R.Knee.Med			R.Shank.Upper.Post			R.Shank.Lower.Ant			R.Shank.Lower.Post			R.Shank.Upper.Ant			R.Ankle.Lat			R.Ankle.Med			R.Heel.Upper			R.Heel.Med			R.Heel.Lat			R.Toe.Lat			R.Toe.Med			R.Toe.Tip			L.Thigh.Upper.Post			L.Thigh.Lower.Ant			L.Thigh.Lower.Post			L.Thigh.Upper.Ant			L.Knee.Lat			L.Knee.Med			L.Shank.Upper.Post			L.Shank.Lower.Ant			L.Shank.Lower.Post			L.Shank.Upper.Ant			L.Ankle.Lat			L.Ankle.Med			L.Heel.Upper			L.Heel.Med			L.Heel.Lat			L.Toe.Lat			L.Toe.Med			L.Toe.Tip			Cervical.Spine			Back			
		X1	Y1	Z1	X2	Y2	Z2	X3	Y3	Z3	X4	Y4	Z4	X5	Y5	Z5	X6	Y6	Z6	X7	Y7	Z7	X8	Y8	Z8	X9	Y9	Z9	X10	Y10	Z10	X11	Y11	Z11	X12	Y12	Z12	X13	Y13	Z13	X14	Y14	Z14	X15	Y15	Z15	X16	Y16	Z16	X17	Y17	Z17	X18	Y18	Z18	X19	Y19	Z19	X20	Y20	Z20	X21	Y21	Z21	X22	Y22	Z22	X23	Y23	Z23	X24	Y24	Z24	X25	Y25	Z25	X26	Y26	Z26	X27	Y27	Z27	X28	Y28	Z28	X29	Y29	Z29	X30	Y30	Z30	X31	Y31	Z31	X32	Y32	Z32	X33	Y33	Z33	X34	Y34	Z34	X35	Y35	Z35	X36	Y36	Z36	X37	Y37	Z37	X38	Y38	Z38	X39	Y39	Z39	X40	Y40	Z40	X41	Y41	Z41	X42	Y42	Z42	X43	Y43	Z43	X44	Y44	Z44	X45	Y45	Z45	X46	Y46	Z46	X47	Y47	Z47	X48	Y48	Z48	X49	Y49	Z49	X50	Y50	Z50	X51	Y51	Z51	

1	0	NaN	NaN	NaN	-1772.2	1467.5	492.27	-1797.4	1464.7	142.61	-1720.8	1777.2	307.22	NaN	NaN	NaN	NaN	NaN	NaN	-1886.9	1042.4	349.31	-1883.4	1041	269.9	-1786.8	961.99	508.5	-1761.6	941.14	149.84	-1790.1	1104.4	484	-1750.5	1087.7	164.73	-1901.1	1008.8	314.63	-1861.5	727.4	490.72	NaN	NaN	NaN	-1899.3	649.58	467.22	-1789.3	712.83	478.76	-1939	541.4	446.4	-1907.7	543.33	321.05	-2076.7	358.85	432.09	NaN	NaN	NaN	-2113.6	295.04	411.6	NaN	NaN	NaN	-2171	173.9	378.32	-2150.3	174.48	295.78	-2244	163.39	327.42	-2247.1	130.28	297.95	-2251.8	132.21	361.97	-2097.2	49.737	409.87	-2066.6	48.231	289.38	-2003.6	48.916	338.36	-1603.5	715.64	173.58	NaN	NaN	NaN	-1585.3	628.1	194.91	NaN	NaN	NaN	-1562.6	541.29	211.43	-1537.8	558.57	329.76	-1518.7	312.68	220.57	-1435.6	280.82	218.97	-1494.6	244.7	237.04	-1461.1	346.57	207.9	-1391.7	130.99	232.56	-1391.4	160.74	320.9	NaN	NaN	NaN	NaN	NaN	NaN	-1404.2	31.426	255.84	-1260.2	134.39	211.73	NaN	NaN	NaN	-1209	215.49	268.2	-1842.9	1519.1	319.07	-1893.8	1242.8	319.71
2	0.0041667	NaN	NaN	NaN	-1767	1467.7	491.82	-1791.8	1464.6	142.14	-1715.6	1777.3	306.63	NaN	NaN	NaN	NaN	NaN	NaN	-1880.7	1042.2	348.78	-1877.1	1040.9	269.37	-1780.6	961.88	508.08	-1755.4	941.28	149.72	-1784.2	1104.3	483.66	-1744.2	1087.8	164.44	-1894.7	1008.6	314.06	-1855.3	727.24	490.74	NaN	NaN	NaN	-1892.8	649.3	467.37	-1783.1	712.78	479.03	-1932	540.97	446.85	-1900.8	542.75	321.56	-2071.9	360.05	432.3	NaN	NaN	NaN	-2109.7	296.74	411.73	NaN	NaN	NaN	-2168	176.02	378.65	-2147.1	176.23	296.23	-2240.7	166.78	327.69	-2244.3	133.94	298.04	-2249.2	135.63	362.04	-2096.5	50.057	409.87	-2065.9	48.465	289.49	-2001	50.07	336.81	-1597.8	715.03	173.5	NaN	NaN	NaN	-1580.2	627.43	194.94	NaN	NaN	NaN	-1557.8	540.65	211.33	-1533	557.81	329.51	-1515.3	311.82	220.22	-1432.1	279.66	219.27	-1491.7	243.67	236.74	-1457.4	345.42	208.16	-1389.2	129.54	232.85	-1389.3	158.92	321.14	NaN	NaN	NaN	NaN	NaN	NaN	-1403.3	31.116	255.86	-1258.2	132.08	212.67	NaN	NaN	NaN	-1206.5	212.58	269.62	-1837.6	1519	318.56	-1888.1	1242.6	319.35
3	0.0083333	NaN	NaN	NaN	-1761.5	1467.8	491.35	-1786.1	1464.5	141.66	-1710.2	1777.4	306.02	NaN	NaN	NaN	NaN	NaN	NaN	-1874.3	1042.1	348.24	-1870.5	1040.8	268.82	-1774.2	961.77	507.63	-1748.8	941.41	149.57	-1778	1104.2	483.31	-1737.6	1087.9	164.13	-1888.1	1008.5	313.47	-1848.7	727.07	490.76	NaN	NaN	NaN	-1885.9	649.01	467.54	-1776.5	712.72	479.32	-1924.7	540.55	447.31	-1893.6	542.12	322.11	-2067	361.32	432.54	NaN	NaN	NaN	-2105.6	298.56	411.86	NaN	NaN	NaN	-2164.9	178.23	379.01	-2143.7	178.06	296.71	-2237.3	170.34	328	-2241.4	137.78	298.16	-2246.4	139.23	362.15	-2095.8	50.411	409.88	-2065.2	48.737	289.59	NaN	NaN	NaN	-1591.9	714.41	173.41	NaN	NaN	NaN	-1575	626.74	194.97	NaN	NaN	NaN	-1552.7	539.98	211.23	-1528	557.04	329.24	-1511.8	310.95	219.9	-1428.5	278.48	219.59	-1488.6	242.62	236.48	-1453.5	344.24	208.44	-1386.7	128.08	233.18	-1387	157.09	321.41	NaN	NaN	NaN	NaN	NaN	NaN	-1402.3	30.858	255.89	-1256	129.67	213.62	NaN	NaN	NaN	-1203.8	209.51	271.06	-1832	1519	318.03	-1882.1	1242.4	318.97
4	0.0125	NaN	NaN	NaN	-1755.8	1468.1	490.87	-1780.1	1464.5	141.16	-1704.6	1777.5	305.38	NaN	NaN	NaN	NaN	NaN	NaN	-1867.6	1042	347.67	-1863.7	1040.8	268.24	-1767.5	961.64	507.17	-1741.9	941.54	149.37	-1771.6	1104.2	482.95	-1730.8	1088.1	163.82	-1881.2	1008.4	312.85	-1842	726.9	490.78	NaN	NaN	NaN	-1878.6	648.7	467.71	-1769.8	712.66	479.63	-1917.3	540.14	447.79	-1886	541.46	322.7	-2061.8	362.66	432.78	NaN	NaN	NaN	-2101.5	300.49	412.01	NaN	NaN	NaN	-2161.5	180.53	379.41	-2140.2	179.94	297.24	-2233.6	174.06	328.36	-2238.3	141.79	298.31	-2243.4	142.99	362.29	-2095.1	50.803	409.9	-2064.5	49.05	289.7	NaN	NaN	NaN	-1585.8	713.78	173.31	NaN	NaN	NaN	-1569.6	626.05	194.99	NaN	NaN	NaN	-1547.6	539.29	211.13	-1522.9	556.28	328.98	-1508	310.06	219.61	-1424.7	277.28	219.92	-1485.4	241.57	236.26	-1449.5	343.06	208.74	-1384	126.61	233.54	-1384.7	155.26	321.73	NaN	NaN	NaN	NaN	NaN	NaN	-1401.2	30.669	255.94	-1253.8	127.17	214.58	NaN	NaN	NaN	-1201	206.28	272.5	-1826.3	1518.9	317.49	-1875.9	1242.3	318.58
5	0.016667	NaN	NaN	NaN	-1749.9	1468.3	490.37	-1774	1464.4	140.65	-1698.8	1777.6	304.72	NaN	NaN	NaN	NaN	NaN	NaN	-1860.7	1041.8	347.08	-1856.7	1040.8	267.64	-1760.5	961.5	506.69	-1734.7	941.65	149.13	-1765	1104.1	482.57	-1724	1088.2	163.49	-1874.1	1008.3	312.21	-1835	726.74	490.78	NaN	NaN	NaN	-1871.1	648.38	467.88	-1762.8	712.6	479.96	-1909.6	539.76	448.28	-1878.2	540.77	323.32	-2056.5	364.06	433.04	NaN	NaN	NaN	-2097.2	302.53	412.16	NaN	NaN	NaN	-2158	182.89	379.85	-2136.4	181.89	297.82	-2229.8	177.9	328.77	-2235	145.97	298.5	-2240.2	146.89	362.47	-2094.3	51.237	409.92	-2063.7	49.412	289.8	NaN	NaN	NaN	-1579.6	713.15	173.21	NaN	NaN	NaN	-1564.1	625.35	194.99	NaN	NaN	NaN	-1542.4	538.6	211.03	-1517.6	555.52	328.72	-1504.2	309.19	219.36	-1420.9	276.08	220.26	-1482.1	240.53	236.09	-1445.4	341.89	209.07	-1381.2	125.17	233.94	-1382.2	153.46	322.09	NaN	NaN	NaN	NaN	NaN	NaN	-1400.2	30.561	256.01	-1251.5	124.6	215.54	-1247.8	149.88	332.39	-1198	202.91	273.94	-1820.4	1518.9	316.92	-1869.5	1242.1	318.18
6	0.020833	NaN	NaN	NaN	-1743.9	1468.5	489.87	-1767.7	1464.4	140.13	-1692.9	1777.8	304.05	NaN	NaN	NaN	NaN	NaN	NaN	-1853.6	1041.7	346.49	-1849.5	1040.8	267.03	-1753.4	961.36	506.19	-1727.3	941.77	148.85	-1758.3	1104.1	482.19	-1717	1088.4	163.15	-1866.9	1008.2	311.56	-1827.8	726.59	490.77	NaN	NaN	NaN	-1863.4	648.04	468.06	-1755.6	712.54	480.31	-1901.7	539.4	448.78	-1870.1	540.04	323.97	-2051	365.52	433.32	NaN	NaN	NaN	-2092.9	304.66	412.33	NaN	NaN	NaN	-2154.3	185.31	380.35	-2132.5	183.87	298.45	-2225.7	181.86	329.25	-2231.5	150.28	298.75	-2236.8	150.93	362.7	-2093.5	51.718	409.96	-2062.8	49.829	289.9	NaN	NaN	NaN	-1573.3	712.54	173.09	NaN	NaN	NaN	-1558.4	624.66	194.98	NaN	NaN	NaN	-1537.1	537.91	210.94	-1512.3	554.78	328.46	-1500.2	308.33	219.17	-1417	274.89	220.61	-1478.6	239.52	235.98	-1441.2	340.73	209.42	-1378.3	123.76	234.36	-1379.6	151.71	322.49	NaN	NaN	NaN	NaN	NaN	NaN	-1399.1	30.541	256.1	-1249.2	121.98	216.48	-1245.1	146.86	333.05	-1194.9	199.42	275.36	-1814.3	1518.9	316.35	-1862.9	1241.9	317.76
7	0.025	NaN	NaN	NaN	-1737.8	1468.8	489.35	-1761.3	1464.4	139.6	-1686.8	1777.9	303.36	NaN	NaN	NaN	NaN	NaN	NaN	-1846.4	1041.7	345.88	-1842.3	1040.8	266.41	-1746.1	961.2	505.68	-1719.6	941.87	148.52	-1751.4	1104	481.79	-1709.9	1088.7	162.8	-1859.6	1008.2	310.9	-1820.5	726.44	490.74	NaN	NaN	NaN	-1855.5	647.7	468.24	-1748.2	712.47	480.67	-1893.7	539.06	449.29	-1861.7	539.28	324.66	-2045.4	367.04	433.6	NaN	NaN	NaN	-2088.5	306.9	412.52	NaN	NaN	NaN	-2150.5	187.77	380.9	-2128.4	185.89	299.12	-2221.4	185.91	329.79	-2227.8	154.73	299.05	-2233.3	155.08	362.98	-2092.6	52.249	410.01	-2061.8	50.307	289.99	NaN	NaN	NaN	-1566.9	711.95	172.96	NaN	NaN	NaN	-1552.8	623.99	194.94	NaN	NaN	NaN	-1531.8	537.23	210.84	-1507	554.07	328.21	-1496.2	307.5	219.02	-1413	273.72	220.98	-1475.1	238.54	235.92	-1436.8	339.6	209.78	-1375.4	122.4	234.82	-1376.8	150.02	322.93	NaN	NaN	NaN	NaN	NaN	NaN	-1398	30.615	256.21	-1246.9	119.31	217.4	-1242.3	143.79	333.71	-1191.6	195.8	276.74	-1808.2	1518.9	315.76	-1856.2	1241.8	317.33
8	0.029167	NaN	NaN	NaN	-1731.5	1469	488.83	-1754.8	1464.4	139.06	-1680.6	1778.1	302.66	NaN	NaN	NaN	NaN	NaN	NaN	-1839.1	1041.6	345.27	-1834.9	1040.9	265.79	-1738.6	961.05	505.16	-1711.7	941.98	148.13	-1744.4	1104	481.4	-1702.8	1089	162.44	-1852.2	1008.2	310.23	-1813.1	726.31	490.7	NaN	NaN	NaN	-1847.3	647.36	468.43	-1740.8	712.4	481.04	-1885.6	538.75	449.82	-1853.2	538.49	325.37	-2039.7	368.62	433.91	NaN	NaN	NaN	-2084.1	309.23	412.74	NaN	NaN	NaN	-2146.5	190.26	381.51	-2124.2	187.93	299.86	-2217	190.05	330.41	-2223.9	159.29	299.42	-2229.5	159.34	363.33	-2091.7	52.837	410.08	-2060.8	50.853	290.08	NaN	NaN	NaN	-1560.4	711.39	172.81	NaN	NaN	NaN	-1547	623.35	194.88	NaN	NaN	NaN	-1526.4	536.57	210.75	-1501.6	553.4	327.98	-1492	306.71	218.93	-1408.9	272.58	221.35	-1471.4	237.6	235.92	-1432.5	338.52	210.17	-1372.4	121.09	235.31	-1374.1	148.4	323.41	NaN	NaN	NaN	NaN	NaN	NaN	-1396.9	30.78	256.34	-1244.6	116.61	218.28	-1239.6	140.71	334.35	-1188.3	192.08	278.07	-1801.9	1518.9	315.17	-1849.4	1241.6	316.9
9	0.033333	NaN	NaN	NaN	-1725.2	1469.3	488.31	-1748.3	1464.4	138.53	-1674.4	1778.3	301.95	NaN	NaN	NaN	NaN	NaN	NaN	-1831.7	1041.6	344.67	-1827.5	1041	265.16	-1731.1	960.89	504.63	-1703.6	942.09	147.7	-1737.3	1104	481	-1695.6	1089.3	162.07	-1844.7	1008.2	309.56	-1805.7	726.19	490.63	NaN	NaN	NaN	-1839.1	647.02	468.61	-1733.2	712.34	481.43	-1877.4	538.46	450.35	-1844.4	537.69	326.11	-2033.9	370.24	434.22	NaN	NaN	NaN	-2079.7	311.64	412.98	NaN	NaN	NaN	-2142.3	192.78	382.19	-2119.8	189.99	300.65	-2212.3	194.26	331.12	-2219.8	163.95	299.87	-2225.5	163.69	363.76	-2090.8	53.486	410.18	-2059.7	51.472	290.17	NaN	NaN	NaN	-1553.9	710.88	172.65	NaN	NaN	NaN	-1541.3	622.75	194.8	NaN	NaN	NaN	-1521.1	535.94	210.66	-1496.3	552.78	327.76	-1487.9	305.96	218.89	-1404.8	271.47	221.73	-1467.7	236.72	235.98	-1428.1	337.47	210.56	-1369.5	119.85	235.81	-1371.2	146.87	323.93	NaN	NaN	NaN	NaN	NaN	NaN	-1395.8	31.031	256.48	-1242.4	113.89	219.11	-1236.8	137.67	334.97	-1184.8	188.26	279.35	-1795.6	1519	314.58	-1842.5	1241.5	316.46
10	0.0375	NaN	NaN	NaN	-1718.8	1469.6	487.78	-1741.7	1464.5	137.99	-1668.1	1778.6	301.24	NaN	NaN	NaN	NaN	NaN	NaN	-1824.3	1041.6	344.07	-1820.1	1041.2	264.54	-1723.4	960.72	504.09	-1695.4	942.21	147.22	-1730.1	1104	480.6	-1688.5	1089.7	161.69	-1837.2	1008.2	308.89	-1798.1	726.08	490.55	NaN	NaN	NaN	-1830.7	646.67	468.78	-1725.5	712.27	481.82	-1869.2	538.19	450.9	-1835.6	536.87	326.87	-2028	371.92	434.56	NaN	NaN	NaN	-2075.3	314.13	413.27	NaN	NaN	NaN	-2137.9	195.3	382.94	-2115.2	192.06	301.5	-2207.3	198.52	331.92	-2215.5	168.71	300.4	-2221.3	168.13	364.27	-2089.8	54.203	410.29	-2058.6	52.172	290.26	NaN	NaN	NaN	-1547.4	710.42	172.47	NaN	NaN	NaN	-1535.5	622.21	194.69	NaN	NaN	NaN	-1515.7	535.36	210.56	-1491	552.2	327.55	-1483.7	305.27	218.9	-1400.8	270.41	222.1	-1464	235.89	236.08	-1423.6	336.47	210.96	-1366.5	118.67	236.34	-1368.3	145.42	324.47	NaN	NaN	NaN	NaN	NaN	NaN	-1394.7	31.361	256.63	-1240.2	111.16	219.91	-1234.1	134.7	335.55	-1181.3	184.35	280.56	-1789.2	1519	313.98	-1835.5	1241.4	316.03
11	0.041667	NaN	NaN	NaN	-1712.4	1469.9	487.25	-1735	1464.5	137.45	-1661.8	1778.8	300.53	NaN	NaN	NaN	NaN	NaN	NaN	-1816.8	1041.7	343.49	-1812.6	1041.4	263.94	-1715.7	960.56	503.55	-1687.1	942.36	146.69	-1722.9	1104	480.2	-1681.4	1090.1	161.3	-1829.7	1008.3	308.24	-1790.5	726	490.45	NaN	NaN	NaN	-1822.2	646.34	468.94	-1717.8	712.21	482.21	-1860.8	537.93	451.47	-1826.7	536.03	327.65	-2022.1	373.65	434.9	NaN	NaN	NaN	-2070.9	316.69	413.61	NaN	NaN	NaN	-2133.4	197.84	383.76	-2110.5	194.14	302.41	-2202.2	202.82	332.82	-2211	173.54	301.03	-2216.8	172.63	364.87	-2088.7	54.991	410.43	-2057.3	52.956	290.36	NaN	NaN	NaN	-1540.9	710.02	172.28	NaN	NaN	NaN	-1529.7	621.73	194.55	NaN	NaN	NaN	-1510.4	534.82	210.46	-1485.8	551.69	327.37	-1479.4	304.63	218.94	-1396.7	269.39	222.48	-1460.3	235.14	236.23	-1419.2	335.53	211.36	-1363.6	117.56	236.87	-1365.4	144.06	325.04	NaN	NaN	NaN	NaN	NaN	NaN	-1393.7	31.761	256.79	-1238	108.44	220.64	-1231.6	131.86	336.09	-1177.8	180.37	281.7	-1782.8	1519.1	313.39	-1828.5	1241.3	315.59
